<svg width="23" height="17" viewBox="0 0 23 17" fill="none" xmlns="http://www.w3.org/2000/svg">
<path d="M0 0.25V2.25H14V6.25V8.25V11.25H8.2207C7.67163 10.6407 6.88492 10.25 6 10.25C5.11508 10.25 4.32837 10.6407 3.7793 11.25H3V10.25L5 8.25H1V13.25H3C3 14.907 4.343 16.25 6 16.25C7.657 16.25 9 14.907 9 13.25H15C15 14.907 16.343 16.25 18 16.25C19.657 16.25 21 14.907 21 13.25H22H23V8.25L20.2754 2.80273C20.1064 2.46373 19.7618 2.25 19.3828 2.25H16V0.25H0ZM1 4.25V6.25H8V4.25H1ZM16 4.25H18.7637L19.7637 6.25H16V4.25ZM16 8.25H20.7637L21 8.72266V11.25H20.2207C19.6716 10.6407 18.8849 10.25 18 10.25C17.2279 10.25 16.5316 10.5502 16 11.0293V8.25ZM6 12C6.689 12 7.25 12.561 7.25 13.25C7.25 13.939 6.689 14.5 6 14.5C5.311 14.5 4.75 13.939 4.75 13.25C4.75 12.561 5.311 12 6 12ZM18 12C18.689 12 19.25 12.561 19.25 13.25C19.25 13.939 18.689 14.5 18 14.5C17.311 14.5 16.75 13.939 16.75 13.25C16.75 12.561 17.311 12 18 12Z" fill="#FF7622"/>
</svg>
